<svg id="katman_1" data-name="katman 1" xmlns="http://www.w3.org/2000/svg" xmlns:xlink="http://www.w3.org/1999/xlink" viewBox="0 0 1848.89 507.8"><defs><style>.cls-1{fill:url(#Adsız_degrade_7);}.cls-2{fill:url(#Adsız_degrade_11);}.cls-3{fill:url(#Adsız_degrade_7-2);}.cls-4{fill:url(#Adsız_degrade_7-3);}.cls-5{fill:url(#Adsız_degrade_7-4);}.cls-6{fill:url(#Adsız_degrade_7-5);}.cls-7{fill:url(#Adsız_degrade_7-6);}.cls-8{fill:url(#Adsız_degrade_7-7);}.cls-9{fill:url(#Adsız_degrade_7-8);}</style><linearGradient id="Adsız_degrade_7" y1="250.49" x2="307.08" y2="250.49" gradientUnits="userSpaceOnUse"><stop offset="0" stop-color="#44bed9"/><stop offset="1" stop-color="#0089d0"/></linearGradient><linearGradient id="Adsız_degrade_11" x1="377.19" y1="332.59" x2="457.37" y2="128.85" xlink:href="#Adsız_degrade_7"/><linearGradient id="Adsız_degrade_7-2" x1="532.21" y1="374.78" x2="832.77" y2="374.78" xlink:href="#Adsız_degrade_7"/><linearGradient id="Adsız_degrade_7-3" x1="848.09" y1="374.78" x2="938.55" y2="374.78" xlink:href="#Adsız_degrade_7"/><linearGradient id="Adsız_degrade_7-4" x1="964.8" y1="403.96" x2="1187.31" y2="403.96" xlink:href="#Adsız_degrade_7"/><linearGradient id="Adsız_degrade_7-5" x1="1213.57" y1="374.78" x2="1304.03" y2="374.78" xlink:href="#Adsız_degrade_7"/><linearGradient id="Adsız_degrade_7-6" x1="1322.99" y1="382.08" x2="1502.46" y2="382.08" xlink:href="#Adsız_degrade_7"/><linearGradient id="Adsız_degrade_7-7" x1="1525.07" y1="374.78" x2="1615.53" y2="374.78" xlink:href="#Adsız_degrade_7"/><linearGradient id="Adsız_degrade_7-8" x1="1630.84" y1="433.14" x2="1885.44" y2="433.14" xlink:href="#Adsız_degrade_7"/></defs><polygon class="cls-1" points="307.08 426.73 280.95 500.99 182.46 500.99 149.38 407 0 0 152.73 0 236.67 224.15 307.08 426.73"/><path class="cls-2" d="M532.21,96.44l-4.6,13.07L524.26,119,383.71,518.41,313.26,315.72,381.63,119h0a33.61,33.61,0,0,1,31.75-22.59Z" transform="translate(-36.56 -53)"/><path class="cls-3" d="M734.28,247.11h98.49L728.45,502.45H636.53L532.21,247.11H635.8L685,386.82Z" transform="translate(-36.56 -53)"/><path class="cls-4" d="M848.09,294.53V247.11h90.46v47.42Zm0,207.92v-197h90.46v197Z" transform="translate(-36.56 -53)"/><path class="cls-5" d="M964.8,435.33h85.36v10.21c0,6.93,1.09,8,8,8h32.1c6.93,0,8-1.1,8-8v-5.1c0-6.2-1.1-6.93-8-8l-73.68-7.29c-32.1-3.29-48.15-19-48.15-47.42V353.62c0-30.64,17.88-48.14,48.15-48.14h117.45c30.28,0,48.15,18.23,48.15,48.87v15.32h-85.35v-7.29c0-6.93-1.1-8-8-8h-23.34c-6.93,0-8,1.1-8,8v2.92c0,6.2,1.1,6.93,8,8l73.68,7.3c32.1,3.28,48.15,19,48.15,47.41V454.3c0,30.64-17.88,48.15-48.15,48.15H1013c-30.27,0-48.15-18.24-48.15-48.88Z" transform="translate(-36.56 -53)"/><path class="cls-6" d="M1213.57,294.53V247.11H1304v47.42Zm0,207.92v-197H1304v197Z" transform="translate(-36.56 -53)"/><path class="cls-7" d="M1502.46,374.05h-57.64v46.69c0,9.12,2.56,11.67,11.68,11.67h46v70h-86.09c-41.94,0-60.55-18.24-60.55-60.55V374.05H1323V305.48h32.83l17.51-43.78h71.49v43.78h57.64Z" transform="translate(-36.56 -53)"/><path class="cls-8" d="M1525.07,502.45V247.11h90.46V502.45Z" transform="translate(-36.56 -53)"/><path class="cls-9" d="M1791.34,305.48h94.1l-85,193.32c-11,25.17-23,41.58-35.75,50-13.13,8-33.56,12-61.64,12h-50.34v-70H1706a32.05,32.05,0,0,0,6.57-.36l-81.71-184.93h97.76L1760,400Z" transform="translate(-36.56 -53)"/></svg>